<?xml version="1.0" encoding="UTF-8"?>
<svg version="1.1" xmlns="http://www.w3.org/2000/svg" width="1280" height="386">
<!--e1-->
<path d="M0 0 C1.28003906 1.03060547 1.28003906 1.03060547 2.5859375 2.08203125 C3.35679687 2.67628906 4.12765625 3.27054688 4.921875 3.8828125 C20.63662725 16.75788145 28.37445665 35.27398286 30.5859375 55.08203125 C31.27664126 62.15961302 31.1032985 68.27029747 26.5859375 74.08203125 C23.5768534 77.27977819 21.32006612 78.35286442 17.03642273 78.60101318 C15.18163608 78.6302727 13.32642721 78.63770578 11.47143555 78.62792969 C9.94878334 78.6434362 9.94878334 78.6434362 8.39537048 78.65925598 C5.04597103 78.68871241 1.69717513 78.6901838 -1.65234375 78.69140625 C-3.97691503 78.70638591 -6.30147565 78.72311261 -8.62602234 78.74151611 C-14.73996466 78.78522544 -20.85376339 78.80519684 -26.96783447 78.82025146 C-33.20846052 78.83980947 -39.44893121 78.88178102 -45.68945312 78.921875 C-57.93094171 78.9972161 -70.17239559 79.0474841 -82.4140625 79.08203125 C-81.47731685 80.69327142 -80.53418542 82.30080013 -79.58837891 83.90673828 C-79.06386139 84.80232452 -78.53934387 85.69791077 -77.99893188 86.62063599 C-73.13449579 94.17539102 -64.1620954 99.09619343 -55.66796875 101.48828125 C-42.77953243 103.84007275 -31.15356067 101.95178033 -19.4140625 96.08203125 C-12.92602462 95.26093102 -7.77272326 96.28316846 -2.4140625 100.08203125 C0.67031408 103.2627946 0.83227898 106.24453157 1.0234375 110.51953125 C0.87657815 115.48604748 -0.00774428 118.30746241 -3.4140625 122.08203125 C-13.92011646 131.42074588 -32.8418919 134.7968248 -46.6484375 134.30078125 C-67.63337145 132.64095597 -86.30990004 125.05761218 -100.23828125 108.84765625 C-110.89039054 96.03422368 -117.63950286 80.9609768 -118.4140625 64.08203125 C-118.465625 63.43878906 -118.5171875 62.79554688 -118.5703125 62.1328125 C-119.40147141 43.95121138 -112.63585463 25.30783194 -100.56640625 11.8203125 C-74.67880535 -15.85749545 -31.45912063 -24.29293126 0 0 Z M-75.4140625 31.08203125 C-76.0121875 31.69433594 -76.6103125 32.30664062 -77.2265625 32.9375 C-81.33516561 37.42614889 -85.4140625 42.81811581 -85.4140625 49.08203125 C-57.6940625 49.08203125 -29.9740625 49.08203125 -1.4140625 49.08203125 C-5.56088131 36.64157483 -13.41500912 27.02053615 -24.9765625 20.67578125 C-43.37624543 12.20224306 -61.67248593 16.87422262 -75.4140625 31.08203125 Z " fill="#55337c" transform="translate(229.4140625,155.91796875)"/>
<!--l-->
<path d="M0 0 C3.11977894 1.67543684 6.01312161 3.39349261 7.20098019 6.87625504 C7.75128988 9.87588023 7.74763065 12.72974873 7.74525452 15.78070068 C7.74610894 16.44157031 7.74696337 17.10243994 7.74784368 17.78333592 C7.74948967 19.99588441 7.74399154 22.20835694 7.73852539 24.42089844 C7.7382433 26.00767515 7.73840168 27.594452 7.7389679 29.18122864 C7.73925503 33.48871706 7.73337185 37.79617768 7.72639394 42.10365963 C7.72014643 46.60533953 7.71955549 51.10702005 7.71836853 55.60870361 C7.71525934 64.13319988 7.7070515 72.65768334 7.69701904 81.18217397 C7.68584512 90.88703801 7.68034422 100.59190266 7.67532361 110.29677153 C7.66486856 130.26035484 7.64727707 150.22392661 7.625 170.1875 C8.24205811 170.17444824 8.85911621 170.16139648 9.49487305 170.14794922 C10.70977417 170.13272217 10.70977417 170.13272217 11.94921875 170.1171875 C12.75190186 170.10413574 13.55458496 170.09108398 14.3815918 170.07763672 C17.57991631 170.23426378 19.20470552 171.11296187 21.625 173.1875 C25.55344668 177.7706878 27.05906524 182.21153198 26.625 188.1875 C25.16919676 192.8720959 23.03327427 196.77005927 18.625 199.1875 C13.40936483 200.92604506 7.89709733 200.45696586 2.4375 200.5 C1.23029297 200.52900391 0.02308594 200.55800781 -1.22070312 200.58789062 C-8.08299894 200.63666583 -13.88659058 200.64001289 -19.375 196.1875 C-24.78109576 188.54078527 -23.93217897 180.0212764 -23.87670898 171.05053711 C-23.88049562 169.30703801 -23.8859985 167.56354192 -23.89308167 165.8200531 C-23.90700757 161.10107034 -23.89588711 156.38245335 -23.87937045 151.66349101 C-23.86548873 146.71800519 -23.8719835 141.77253992 -23.87550354 136.82704163 C-23.87820294 128.52420173 -23.86475242 120.22150662 -23.84155273 111.91870117 C-23.81493597 102.32672429 -23.81319971 92.73498931 -23.8249411 83.14298815 C-23.83572855 73.90480394 -23.82952477 64.66670702 -23.81538582 55.42852974 C-23.8096353 51.50165296 -23.80970133 47.57484026 -23.81445122 43.64796257 C-23.81923143 39.02265814 -23.80907607 34.39761787 -23.78749657 29.77236366 C-23.78194308 28.07728338 -23.78145017 26.38217765 -23.78644943 24.68709564 C-23.79242822 22.36877854 -23.77984843 20.05126209 -23.76268005 17.73301697 C-23.76025016 16.43722686 -23.75782026 15.14143675 -23.75531673 13.80638027 C-23.12906524 7.84732309 -21.13726131 3.05683731 -16.375 -0.8125 C-10.72463816 -2.69595395 -5.39852485 -2.61444272 0 0 Z " fill="#55337c" transform="translate(295.375,89.8125)"/>
<!--e2-->
<path d="M0 0 C1.37106775 1.14675703 2.72671251 2.31233411 4.0625 3.5 C4.92875 4.24443359 4.92875 4.24443359 5.8125 5.00390625 C19.83821924 17.95821638 28.16168638 35.6619344 29.3828125 54.6640625 C29.67806748 62.11602274 29.49644347 68.21858008 25.0625 74.5 C22.20835035 77.07086582 20.4237705 77.87450217 16.59527588 77.86076355 C15.70629105 77.86488754 14.81730621 77.86901154 13.90138245 77.8732605 C12.45021278 77.85708176 12.45021278 77.85708176 10.96972656 77.84057617 C9.43266304 77.84123329 9.43266304 77.84123329 7.86454773 77.84190369 C4.47721307 77.83981351 1.09037321 77.8164711 -2.296875 77.79296875 C-4.64528127 77.78737362 -6.99369103 77.78310313 -9.34210205 77.78010559 C-15.52355616 77.76865032 -21.70479886 77.739177 -27.88616943 77.70599365 C-34.19361511 77.67530763 -40.50109494 77.66160338 -46.80859375 77.64648438 C-59.18498873 77.61430818 -71.56122678 77.56310337 -83.9375 77.5 C-83.30706254 78.7909131 -82.67318195 80.0801451 -82.0378418 81.36865234 C-81.68521774 82.08677094 -81.33259369 82.80488953 -80.96928406 83.54476929 C-76.81233705 91.42218355 -67.56979365 97.43257409 -59.375 100.375 C-47.29715973 103.50698653 -33.89799055 102.2477226 -22.84375 96.390625 C-18.69279887 94.4512462 -13.95209054 94.82382255 -9.6796875 96.2578125 C-5.78493756 98.08302742 -3.15252774 99.70280958 -0.9375 103.5 C0.01651271 108.72633049 0.20009376 114.07003782 -2.0859375 118.953125 C-10.36359856 129.53237962 -26.3863683 131.65151457 -38.9375 133.5 C-43.01356487 133.8799324 -46.86294106 133.85887037 -50.9375 133.5 C-52.05382812 133.40589844 -53.17015625 133.31179688 -54.3203125 133.21484375 C-73.56199757 131.03693874 -90.24855001 121.82060238 -102.625 107.0625 C-117.71759626 87.9831802 -121.09393905 67.37844727 -118.5078125 43.5390625 C-116.12740782 31.6370391 -110.0065537 20.48748258 -101.9375 11.5 C-101.22078125 10.69046875 -100.5040625 9.8809375 -99.765625 9.046875 C-73.80757538 -18.60777917 -30.47493269 -22.90767745 0 0 Z M-80.140625 34.0859375 C-83.09696627 38.05771773 -86.9375 43.38200179 -86.9375 48.5 C-59.2175 48.5 -31.4975 48.5 -2.9375 48.5 C-7.3459198 35.27474059 -15.44124229 26.17036342 -27.6015625 19.5078125 C-47.61982261 10.87117185 -66.55395585 18.2710546 -80.140625 34.0859375 Z " fill="#55337c" transform="translate(450.9375,156.5)"/>
<!--v-->
<path d="M0 0 C4.3068604 3.11051029 6.33903195 7.84408837 8.60546875 12.50390625 C8.95367676 13.21031754 9.30188477 13.91672882 9.66064453 14.64454651 C10.73752507 16.83333662 11.8071029 19.02556497 12.875 21.21875 C13.19312653 21.86962585 13.51125305 22.52050171 13.83901978 23.19110107 C16.02987027 27.6736105 18.20395622 32.16412237 20.375 36.65625 C21.05807503 38.06751832 21.74126454 39.47873123 22.42456055 40.88989258 C23.84648837 43.82676345 25.26792848 46.76386956 26.68896484 49.70117188 C30.0003676 56.54527066 33.31596081 63.38733826 36.63232422 70.22903442 C37.66671576 72.36336447 38.70057565 74.49795142 39.734375 76.63256836 C40.37107327 77.94646175 41.007791 79.26034571 41.64453125 80.57421875 C42.19729736 81.71528076 42.75006348 82.85634277 43.31958008 84.03198242 C44.37959728 86.20376151 45.46661652 88.3625193 46.5769043 90.5090332 C47.875 93.21875 47.875 93.21875 47.875 95.21875 C48.535 95.21875 49.195 95.21875 49.875 95.21875 C49.97377441 94.53603027 50.07254883 93.85331055 50.17431641 93.14990234 C51.01861183 89.61798217 52.47852309 86.5518047 54.0859375 83.3203125 C54.57181335 82.32573532 54.57181335 82.32573532 55.06750488 81.31106567 C56.12317001 79.15271855 57.18664454 76.99831709 58.25 74.84375 C58.98390933 73.34570745 59.71714013 71.84733229 60.44970703 70.34863281 C61.55246806 68.09281482 62.6556292 65.83720376 63.76095581 63.5826416 C66.794238 57.39553586 69.78418453 51.18848874 72.75 44.96875 C73.18256104 44.06439209 73.61512207 43.16003418 74.06079102 42.22827148 C76.24418373 37.65892884 78.41063033 33.08220181 80.55859375 28.49609375 C92.94726775 2.09441245 92.94726775 2.09441245 99.875 -0.78125 C105.10795738 -1.52654999 110.07858947 -1.57991392 114.875 0.84375 C118.22971319 3.49956461 119.52674589 5.17398767 120.875 9.21875 C121.46106046 15.47787567 119.7669268 19.77074788 117.25 25.34375 C116.85466064 26.2419043 116.45932129 27.14005859 116.05200195 28.06542969 C111.12083121 39.13140603 105.78426342 50.01156862 100.46812439 60.89624023 C98.21593314 65.5098315 95.9943271 70.13728479 93.78442383 74.77124023 C87.74012725 87.43720229 81.60021652 100.05744049 75.45040894 112.67242432 C74.40556414 114.81716645 73.36219277 116.96262705 72.32034302 119.10882568 C70.84278553 122.15145232 69.35957894 125.19126312 67.875 128.23046875 C67.43063095 129.14822586 66.9862619 130.06598297 66.52842712 131.0115509 C60.55591762 143.19701576 60.55591762 143.19701576 55.6875 146.15625 C49.7598882 147.80820739 45.24549014 147.33427477 39.6875 144.71875 C33.02863686 138.79976054 29.85354119 131.16939709 26.39233398 123.12133789 C23.20950253 115.79195788 19.6634377 108.66252113 16.0625 101.53125 C10.32905263 90.16072853 4.76600508 78.71996737 -0.69482422 67.21582031 C-2.79865593 62.80703949 -4.93248273 58.41291579 -7.0637207 54.01733398 C-9.25518437 49.48687073 -11.42716194 44.94723378 -13.59570312 40.40576172 C-14.58645699 38.34105851 -15.58469592 36.27992362 -16.59179688 34.22314453 C-17.91417799 31.52227848 -19.20996236 28.81017703 -20.5 26.09375 C-20.88752441 25.31942627 -21.27504883 24.54510254 -21.67431641 23.74731445 C-24.19714032 18.33506692 -24.61613131 14.03645831 -23.125 8.21875 C-21.8121463 4.96176546 -20.38718939 2.05926625 -17.3828125 0.05859375 C-12.0573821 -1.92231894 -5.33803847 -1.96251414 0 0 Z " fill="#55337c" transform="translate(511.125,142.78125)"/>
<!--e3-->
<path d="M0 0 C0.77085937 0.59425781 1.54171875 1.18851563 2.3359375 1.80078125 C17.71666172 14.40218162 25.61094443 32.61113581 28 52 C28.68263698 59.33202685 28.76323311 65.99477774 24 72 C20.98947489 75.19589132 18.73422745 76.27106932 14.45048523 76.51898193 C12.59569858 76.54824145 10.74048971 76.55567453 8.88549805 76.54589844 C7.36284584 76.56140495 7.36284584 76.56140495 5.80943298 76.57722473 C2.46003353 76.60668116 -0.88876237 76.60815255 -4.23828125 76.609375 C-6.56285253 76.62435466 -8.88741315 76.64108136 -11.21195984 76.65948486 C-17.32590216 76.70319419 -23.43970089 76.72316559 -29.55377197 76.73822021 C-35.79439802 76.75777822 -42.03486871 76.79974977 -48.27539062 76.83984375 C-60.51687921 76.91518485 -72.75833309 76.96545285 -85 77 C-84.20211882 78.29043929 -83.40246237 79.57978105 -82.60205078 80.86865234 C-82.15693146 81.58677094 -81.71181213 82.30488953 -81.25320435 83.04476929 C-75.35695058 92.2440164 -65.43710651 97.54486968 -55 100 C-43.69650274 101.00945043 -34.85196449 99.39932609 -24.4375 94.890625 C-19.05611706 92.92435047 -13.81381271 93.32721134 -8.625 95.6875 C-5.20223883 97.66479231 -3.31264757 99.14409775 -2 103 C-1.35675042 108.32512941 -1.29873418 112.57149555 -3.6875 117.4375 C-13.43698679 128.24098537 -29.92175911 131.05465678 -43.9296875 132.25 C-65.18282978 132.75452563 -83.11111112 125.82648035 -98.64501953 111.47021484 C-113.33874746 97.21898216 -120.55768592 78.2577119 -121.25 58 C-121.00860057 40.52268145 -115.75602913 24.03760882 -104 11 C-103.21625 9.96875 -102.4325 8.9375 -101.625 7.875 C-75.1893476 -21.07833358 -30.31426985 -24.4071085 0 0 Z M-74 25 C-74.60585938 25.52464844 -75.21171875 26.04929687 -75.8359375 26.58984375 C-81.95002937 32.26340061 -86.35776313 38.78881565 -88 47 C-60.28 47 -32.56 47 -4 47 C-8.25962642 34.22112073 -16.30924107 24.9201986 -28.1875 18.6875 C-43.65236089 11.24145587 -61.20724672 13.70427104 -74 25 Z " fill="#55337c" transform="translate(760,158)"/>
<!--n-->
<path d="M0 0 C2.35440395 1.96200329 4.09112376 3.54582426 5.625 6.1875 C5.625 7.1775 5.625 8.1675 5.625 9.1875 C6.20765625 8.80078125 6.7903125 8.4140625 7.390625 8.015625 C23.89087253 -2.46566431 43.18331293 -4.84940543 62.265625 -1.5625 C81.22405335 2.67007935 97.99366611 13.75006697 108.625 30.125 C117.98718932 45.27199066 119.94287953 60.02109804 119.92578125 77.39453125 C119.92967523 79.04978034 119.93401133 80.70502843 119.93876648 82.36027527 C119.94618721 85.81044779 119.94596554 89.26051787 119.94067383 92.71069336 C119.93485238 97.12682632 119.95189429 101.54254351 119.9750185 105.95860767 C119.98975243 109.36871276 119.99062857 112.77871722 119.98750877 116.1888485 C119.9880211 117.81751015 119.99324213 119.44617757 120.00332069 121.07480812 C120.01567597 123.3480817 120.00890212 125.62053807 119.99731445 127.89379883 C119.99794388 129.18490067 119.9985733 130.4760025 119.9992218 131.80622864 C119.44991239 136.76949958 117.74157247 139.23043789 114 142.4375 C109.0189497 145.02026682 104.64737952 146.04216972 99.15234375 144.48828125 C95.09862329 142.82065316 91.61328614 141.28834015 89.625 137.1875 C88.64872367 133.27948869 88.4952375 129.60434991 88.4831543 125.58398438 C88.47260262 123.60537415 88.47260262 123.60537415 88.46183777 121.58679199 C88.46002188 120.88589951 88.45820599 120.18500702 88.45633507 119.46287537 C88.44911449 117.24928584 88.43340351 115.03591101 88.41499329 112.8223877 C88.36281064 106.53038627 88.31466393 100.23850186 88.29907227 93.94628906 C88.2888908 90.08880272 88.25931064 86.23185844 88.21775246 82.37458801 C88.20557684 80.91726312 88.20029615 79.45986119 88.20255089 78.00248718 C88.21903363 63.86165191 85.73603998 51.48371331 76.375 40.5625 C67.70791757 33.07729245 58.27441586 28.20610929 46.625 28.1875 C38.32869393 28.80578839 31.8197752 31.12088793 24.625 35.1875 C23.9134375 35.4865625 23.201875 35.785625 22.46875 36.09375 C20.1485238 37.47015537 19.7137459 38.75840726 18.625 41.1875 C17.69731759 42.2768642 16.73717073 43.33923797 15.75 44.375 C6.13725435 55.4882718 6.34004508 70.54251346 6.32003975 84.55262947 C6.31629582 86.65981155 6.29936778 88.76655545 6.27928162 90.87364197 C6.22455862 96.85179527 6.19303072 102.83000267 6.16870117 108.80834961 C6.15281295 112.49454219 6.122614 116.18040248 6.08393669 119.86642265 C6.07233288 121.26058874 6.06635675 122.65481403 6.06625557 124.0490284 C6.0660631 125.9911475 6.04626255 127.93323457 6.02563477 129.87524414 C6.01802879 131.52732628 6.01802879 131.52732628 6.01026917 133.21278381 C5.57408429 136.58062718 4.6167946 138.46196927 2.625 141.1875 C-2.25616608 144.48890884 -7.51234807 145.96181252 -13.375 145.1875 C-18.05670268 143.44333626 -20.58749191 141.31714161 -23.375 137.1875 C-24.36720023 134.2108993 -24.507556 132.24256462 -24.52217102 129.13508606 C-24.52932632 128.09075409 -24.53648163 127.04642212 -24.54385376 125.97044373 C-24.54654266 124.8249556 -24.54923157 123.67946747 -24.55200195 122.49926758 C-24.55857315 121.29248352 -24.56514435 120.08569946 -24.57191467 118.84234619 C-24.5916646 114.83890536 -24.6033169 110.83550462 -24.61328125 106.83203125 C-24.61732989 105.45189583 -24.62144685 104.07176061 -24.62563133 102.6916256 C-24.64468066 96.20536887 -24.65891082 89.71912349 -24.6672433 83.23284417 C-24.67700762 75.7561435 -24.70330681 68.27973951 -24.74374419 60.80314332 C-24.77395533 55.01786518 -24.78871699 49.23267182 -24.79202431 43.44731635 C-24.79436962 39.99512192 -24.80326117 36.54324453 -24.82848549 33.09113503 C-24.85620729 29.23489639 -24.85191978 25.37904442 -24.8449707 21.52270508 C-24.86418579 19.81965462 -24.86418579 19.81965462 -24.88378906 18.0821991 C-24.83939475 11.31526957 -23.98338275 6.95598873 -20.375 1.1875 C-14.64236974 -4.36598556 -6.63585379 -3.56369926 0 0 Z " fill="#55337c" transform="translate(826.375,144.8125)"/>
<!--a-->
<path d="M0 0 C0.59941406 0.51820313 1.19882813 1.03640625 1.81640625 1.5703125 C11.73335633 10.72796014 18.56622665 22.00889083 22 35 C22.2566468 35.95482521 22.2566468 35.95482521 22.51847839 36.92893982 C24.48317514 45.28532732 24.30917375 53.67947833 24.30078125 62.20703125 C24.30467523 63.86228034 24.30901133 65.51752843 24.31376648 67.17277527 C24.32118721 70.62294779 24.32096554 74.07301787 24.31567383 77.52319336 C24.30985238 81.93932632 24.32689429 86.35504351 24.3500185 90.77110767 C24.36475243 94.18121276 24.36562857 97.59121722 24.36250877 101.0013485 C24.3630211 102.63001015 24.36824213 104.25867757 24.37832069 105.88730812 C24.39067597 108.1605817 24.38390212 110.43303807 24.37231445 112.70629883 C24.37294388 113.99740067 24.3735733 115.2885025 24.3742218 116.61872864 C23.97344695 120.23991938 23.17385029 122.11183288 21 125 C16.11883392 128.30140884 10.86265193 129.77431252 5 129 C0.32894693 127.25980376 -2.36363681 125.23701227 -5 121 C-5.87037238 118.33942987 -6.4401201 115.75274284 -7 113 C-7.72703125 113.59167969 -8.4540625 114.18335938 -9.203125 114.79296875 C-24.22543788 126.59896593 -40.11293132 130.79834267 -59.09082031 128.77734375 C-80.1659471 125.9580616 -97.00021039 115.44910064 -110.25 98.875 C-121.51627937 84.10824309 -125.87662952 64.31658744 -123.77294922 46.02587891 C-121.82631723 31.69907947 -117.06939964 20.31048681 -108 9 C-107.18402344 7.93652344 -107.18402344 7.93652344 -106.3515625 6.8515625 C-95.6859432 -6.31137254 -79.51296682 -14.9976424 -63 -18 C-62.30261719 -18.14179688 -61.60523438 -18.28359375 -60.88671875 -18.4296875 C-38.74700855 -21.95484524 -16.4881749 -14.84830217 0 0 Z M-82.35546875 25.7890625 C-84.34249383 28.47462281 -86.21194444 31.17875195 -88 34 C-88.78890625 35.15435547 -88.78890625 35.15435547 -89.59375 36.33203125 C-94.35879116 45.37237323 -94.40644193 57.39132114 -92.3125 67.23046875 C-87.98960525 80.00102031 -79.68067071 89.28162568 -67.75 95.4375 C-58.29488226 100.0274844 -46.79269758 100.58851427 -36.625 97.875 C-29.29608578 95.28975904 -23.17949517 90.73944059 -18 85 C-17.51917969 84.52304688 -17.03835938 84.04609375 -16.54296875 83.5546875 C-8.44620594 75.06846015 -5.59592245 63.77250508 -5.72265625 52.32421875 C-6.85754688 38.72151553 -13.22151607 28.72720915 -23.3515625 20.01171875 C-41.6080529 6.1443256 -67.24595331 7.89819347 -82.35546875 25.7890625 Z " fill="#B41079" transform="translate(1081,161)"/>
<!--i-->
<path d="M0 0 C3.71794837 2.53908669 6.12026876 4.42330628 7.5625 8.75 C7.65882141 10.46186481 7.69743397 12.17723625 7.70294189 13.89179993 C7.71150711 15.48787582 7.71150711 15.48787582 7.72024536 17.11619568 C7.72136322 18.28352737 7.72248108 19.45085907 7.72363281 20.65356445 C7.72859772 21.88306824 7.73356262 23.11257202 7.73867798 24.3793335 C7.75078796 27.75343393 7.75824517 31.12747237 7.76268864 34.50158715 C7.76562104 36.61043264 7.76972618 38.71927271 7.77419281 40.82811546 C7.78786566 47.42863385 7.7975332 54.02913983 7.8013947 60.62967139 C7.80587424 68.2444377 7.82341805 75.85902441 7.8523953 83.47373611 C7.87402561 89.36259271 7.88409971 95.25139883 7.88543582 101.14029473 C7.88648294 104.65607783 7.89237075 108.17169203 7.91025543 111.68743324 C7.92982701 115.61109817 7.92544174 119.5345394 7.91894531 123.45825195 C7.9281601 124.61951096 7.93737488 125.78076996 7.9468689 126.97721863 C7.91751061 132.6310508 7.85119338 136.91073064 4.5625 141.75 C1.14384552 145.05076985 -2.86117063 146.74544818 -7.6484375 146.75390625 C-12.18553082 146.38460796 -15.98628587 145.90539578 -19.4375 142.75 C-23.63500026 135.93481304 -24.00830509 129.48804989 -23.93920898 121.65600586 C-23.94461197 120.47760635 -23.95001495 119.29920685 -23.95558167 118.08509827 C-23.96803236 114.21142026 -23.95160204 110.33849072 -23.93359375 106.46484375 C-23.93183669 103.76159782 -23.93518548 101.05836229 -23.93800354 98.3551178 C-23.94069813 92.69881545 -23.92729389 87.04272622 -23.90405273 81.38647461 C-23.8774347 74.86356777 -23.87570272 68.34101673 -23.8874411 61.81807417 C-23.89824983 55.52026222 -23.89200846 49.22257793 -23.87788582 42.92477608 C-23.87215396 40.25466384 -23.87302907 37.58479979 -23.87695122 34.91465569 C-23.87986871 31.1810871 -23.86332979 27.44809523 -23.84155273 23.71459961 C-23.84605438 22.61671112 -23.85055603 21.51882263 -23.85519409 20.38766479 C-23.78107506 12.72092332 -23.00307806 6.82869368 -17.9375 0.75 C-12.74248928 -3.09430794 -5.72298111 -2.08108404 0 0 Z " fill="#B41079" transform="translate(1150.4375,143.25)"/>
<path d="M0 0 C3.87987121 2.16971439 5.96960968 4.22849679 7.8125 8.375 C8.46521357 13.04902935 8.43776422 16.97559913 6.5 21.3125 C5.943125 21.993125 5.38625 22.67375 4.8125 23.375 C4.379375 23.931875 3.94625 24.48875 3.5 25.0625 C-1.00922328 28.56967366 -6.34444384 28.83276697 -11.85546875 28.67578125 C-15.45313181 28.21176106 -16.87725994 27.16087772 -19.1875 24.375 C-21.71905065 20.1719768 -23.1875 16.69658201 -23.1875 11.75 C-21.51081983 6.09120441 -20.0973837 2.49210179 -14.875 -0.5625 C-9.34229524 -2.15666917 -5.27978273 -2.33679273 0 0 Z " fill="#B41079" transform="translate(1150.1875,108.625)"/>
</svg>
